<svg width="22" height="22" viewBox="0 0 22 22" fill="none" xmlns="http://www.w3.org/2000/svg">
<path d="M21.2528 10.5842C21.2528 4.76215 16.5326 0.0419922 10.7106 0.0419922C4.88861 0.0419922 0.168457 4.76215 0.168457 10.5842C0.168457 16.4062 4.88861 21.1263 10.7106 21.1263C16.5326 21.1263 21.2528 16.4062 21.2528 10.5842ZM10.4749 15.2146C10.3993 15.1396 10.3392 15.0504 10.2981 14.9522C10.2569 14.854 10.2355 14.7486 10.2351 14.6421C10.2347 14.5356 10.2552 14.43 10.2956 14.3314C10.336 14.2329 10.3954 14.1432 10.4704 14.0676L13.1221 11.3951H6.35184C6.13677 11.3951 5.93051 11.3097 5.77843 11.1576C5.62635 11.0055 5.54091 10.7992 5.54091 10.5842C5.54091 10.3691 5.62635 10.1628 5.77843 10.0107C5.93051 9.85866 6.13677 9.77322 6.35184 9.77322H13.1221L10.4704 7.10068C10.3954 7.02501 10.336 6.9353 10.2957 6.83667C10.2553 6.73805 10.2348 6.63245 10.2353 6.5259C10.2357 6.41934 10.2572 6.31393 10.2984 6.21567C10.3396 6.1174 10.3998 6.02822 10.4755 5.95321C10.5511 5.8782 10.6408 5.81883 10.7395 5.77849C10.8381 5.73814 10.9437 5.71762 11.0502 5.71809C11.2654 5.71904 11.4714 5.80544 11.6229 5.95828L15.6467 10.013C15.7974 10.1649 15.882 10.3702 15.882 10.5842C15.882 10.7982 15.7974 11.0035 15.6467 11.1554L11.6229 15.21C11.5479 15.2858 11.4587 15.3461 11.3603 15.3873C11.262 15.4285 11.1565 15.45 11.0499 15.4504C10.9433 15.4508 10.8376 15.4302 10.7389 15.3898C10.6403 15.3493 10.5506 15.2898 10.4749 15.2146Z" fill="white"/>
</svg>
