<svg width="18" height="18" viewBox="0 0 18 18" fill="none" xmlns="http://www.w3.org/2000/svg">
<path d="M0.922677 0.755684C1.22905 0.449403 1.64453 0.277344 2.07774 0.277344C2.51095 0.277344 2.92643 0.449403 3.2328 0.755684L9.00976 6.53264L14.7867 0.755684C15.0948 0.458083 15.5075 0.29341 15.9359 0.297132C16.3643 0.300855 16.774 0.472675 17.0769 0.775586C17.3798 1.0785 17.5517 1.48826 17.5554 1.91663C17.5591 2.34499 17.3944 2.75768 17.0968 3.06581L11.3199 8.84276L17.0968 14.6197C17.3944 14.9278 17.5591 15.3405 17.5554 15.7689C17.5517 16.1973 17.3798 16.607 17.0769 16.9099C16.774 17.2128 16.3643 17.3847 15.9359 17.3884C15.5075 17.3921 15.0948 17.2274 14.7867 16.9298L9.00976 11.1529L3.2328 16.9298C2.92467 17.2274 2.51198 17.3921 2.08362 17.3884C1.65526 17.3847 1.24549 17.2128 0.942578 16.9099C0.639667 16.607 0.467847 16.1973 0.464125 15.7689C0.460402 15.3405 0.625075 14.9278 0.922677 14.6197L6.69963 8.84276L0.922677 3.06581C0.616395 2.75944 0.444336 2.34396 0.444336 1.91075C0.444336 1.47754 0.616395 1.06206 0.922677 0.755684Z" fill="black"/>
</svg>
