<svg width="17" height="17" viewBox="0 0 17 17" fill="none" xmlns="http://www.w3.org/2000/svg">
<g clip-path="url(#clip0_13_263)">
<path d="M14.1015 3.03746C12.5904 1.52646 10.5815 0.694336 8.44458 0.694336C6.3077 0.694336 4.29874 1.52646 2.78771 3.03746C1.27671 4.54849 0.44458 6.55743 0.44458 8.69434C0.44458 10.8312 1.27671 12.8402 2.78771 14.3512C4.29874 15.8622 6.3077 16.6943 8.44458 16.6943C10.5815 16.6943 12.5904 15.8622 14.1015 14.3512C15.6125 12.8402 16.4446 10.8312 16.4446 8.69434C16.4446 6.55743 15.6125 4.54849 14.1015 3.03746ZM11.5209 8.93146L6.5542 11.5968C6.25446 11.7577 5.91046 11.47 6.01552 11.1466L6.84349 8.59815L6.01549 6.04971C5.91036 5.72621 6.25452 5.43868 6.55417 5.59949L11.5208 8.26484C11.7861 8.40715 11.7865 8.78884 11.5209 8.93146Z" fill="#1E1E1E"/>
</g>
<defs>
<clipPath id="clip0_13_263">
<rect width="16" height="16" fill="white" transform="translate(0.44458 0.694336)"/>
</clipPath>
</defs>
</svg>
