<svg width="29" height="24" viewBox="0 0 29 24" fill="none" xmlns="http://www.w3.org/2000/svg">
<path d="M28.3033 24H0.498538C0.475732 23.8587 0.686804 23.0032 0.773558 22.6441C1.36384 20.1967 3.62438 17.755 6.1966 17.3955C6.80969 17.3096 7.39908 17.2895 7.857 16.7811C8.11235 16.2793 8.37395 15.7642 8.62393 15.2722C8.69995 15.1229 8.85647 15.0326 9.02371 15.0393C9.288 15.0504 9.53574 15.1077 9.74413 14.9078C9.74279 14.5626 9.75263 14.2088 9.69718 13.8663C9.65782 13.6221 9.5657 13.4017 9.42037 13.2009C9.33138 13.0779 9.23031 12.9643 9.12701 12.8534C9.06217 12.7837 8.99644 12.7152 8.9298 12.6468C8.86228 12.5775 8.78626 12.5149 8.7156 12.4483C8.66865 12.5413 8.57384 12.6012 8.47636 12.6392C8.30061 12.7081 8.13515 12.743 7.9925 12.8744C7.87221 12.9849 7.78187 13.1226 7.66784 13.2393C7.48092 13.4294 7.28505 13.6105 7.05698 13.7514C6.79538 13.9137 6.50426 14.0107 6.20017 14.0546C6.02309 14.08 5.84421 14.0894 5.66534 14.0903C5.56293 14.0908 5.46053 14.0885 5.35812 14.0841C5.32279 14.0827 5.0433 14.047 5.03301 14.0648C5.31564 13.5622 5.26332 12.9563 5.49675 12.5216C5.7512 12.0471 6.18363 11.6281 6.64065 11.2476C7.06995 10.8894 7.86729 11.1988 8.03051 10.2673C6.9197 8.16645 7.42055 6.15813 8.18166 4.17262C8.23666 4.02997 8.29838 3.89 8.36724 3.75361C8.89179 2.71121 9.89618 1.68358 11.0906 1.498C11.4197 1.44702 11.7533 1.41661 12.0861 1.4014C14.5563 1.2905 14.1954 1.07764 15.6667 0.596466C16.9622 0.17298 18.8287 -0.549674 19.8769 0.695742C20.4784 1.41035 20.6711 2.44335 20.5003 3.34756C20.4932 3.38512 20.4932 3.42627 20.5017 3.47322C21.2194 5.26242 21.9734 7.05966 21.6286 8.90923C21.9295 9.49862 22.3231 10.2454 22.5453 10.6801C22.59 10.7673 22.5878 10.871 22.5399 10.9564C22.3839 11.2355 22.0852 11.3401 21.8544 11.5414C21.731 11.6491 21.6608 11.8057 21.6608 11.9698C21.6612 12.3655 21.6764 13.0372 21.6854 13.4039C21.6889 13.5604 21.5986 13.704 21.4555 13.7675C21.2212 13.8721 20.884 14.0224 20.7883 14.064C20.567 14.1601 20.3451 14.2562 20.1238 14.3524L20.1166 14.3555C19.9928 14.4092 19.9932 14.5845 20.1166 14.6381C20.2334 14.6887 20.3496 14.7405 20.4663 14.7915C20.524 14.8166 20.5813 14.8416 20.639 14.8662C20.639 14.8662 20.6394 14.8662 20.6398 14.8662C20.7355 14.9073 20.7973 15.0013 20.7977 15.1054C20.7977 15.1426 20.7977 15.1757 20.7977 15.1909C20.7959 15.2848 20.7928 15.3791 20.7861 15.4726C20.77 15.7024 20.7879 15.8657 20.8022 16.0973C20.8147 16.3012 20.685 16.8383 19.9717 16.7668C19.7128 16.7408 19.453 16.7225 19.1932 16.7207C18.7751 16.718 18.0578 16.6693 17.7313 17.0181C17.6674 17.0865 17.6307 17.1898 17.5583 17.2618C17.5019 17.3177 17.1446 17.942 17.3821 17.9415C17.8592 17.9393 18.3359 17.9402 18.8126 17.9402C18.8605 17.9402 18.9061 17.9594 18.9405 17.9925C19.3926 18.433 19.5214 18.9079 19.733 19.3819C23.3784 19.3841 26.3697 20.6778 28.3028 23.9987L28.3033 24Z" fill="#484C52"/>
</svg>
