<svg width="61" height="52" viewBox="0 0 61 52" fill="none" xmlns="http://www.w3.org/2000/svg">
<path d="M60.8332 51.0752H0.948023C0.898903 50.7766 1.3535 48.9686 1.54035 48.2097C2.8117 43.0372 7.68038 37.877 13.2204 37.1171C14.5408 36.9357 15.8103 36.8931 16.7965 35.8186C17.3465 34.7582 17.9099 33.6694 18.4483 32.6298C18.612 32.3141 18.9491 32.1232 19.3093 32.1374C19.8786 32.161 20.4121 32.282 20.861 31.8595C20.8581 31.1299 20.8793 30.3824 20.7598 29.6584C20.6751 29.1424 20.4767 28.6765 20.1636 28.2521C19.972 27.9922 19.7543 27.7522 19.5318 27.5178C19.3922 27.3703 19.2506 27.2257 19.1071 27.0811C18.9616 26.9346 18.7979 26.8023 18.6457 26.6615C18.5446 26.8581 18.3404 26.9847 18.1305 27.0651C17.7519 27.2106 17.3956 27.2843 17.0883 27.5622C16.8293 27.7956 16.6347 28.0867 16.3891 28.3334C15.9865 28.7351 15.5646 29.1178 15.0734 29.4155C14.51 29.7586 13.883 29.9637 13.2281 30.0563C12.8467 30.1102 12.4614 30.13 12.0762 30.1319C11.8556 30.1328 11.635 30.1281 11.4145 30.1187C11.3384 30.1158 10.7364 30.0402 10.7143 30.078C11.323 29.0157 11.2103 27.7351 11.713 26.8165C12.2611 25.8138 13.1924 24.9282 14.1768 24.1239C15.1014 23.3669 16.8187 24.0209 17.1702 22.0523C14.7778 17.6122 15.8565 13.3678 17.4957 9.17155C17.6142 8.87006 17.7471 8.57425 17.8954 8.286C19.0252 6.08298 21.1884 3.91114 23.761 3.51893C24.4698 3.41119 25.1884 3.34692 25.9049 3.31479C31.2253 3.0804 30.4481 2.63054 33.6168 1.61361C36.407 0.718607 40.4272 -0.808669 42.6848 1.82343C43.9802 3.33369 44.3953 5.51686 44.0274 7.42785C44.012 7.50724 44.012 7.59419 44.0303 7.69342C45.5761 11.4748 47.2 15.2731 46.4574 19.182C47.1056 20.4277 47.9531 22.006 48.4318 22.9246C48.5281 23.1089 48.5233 23.3282 48.4203 23.5087C48.0841 24.0984 47.4408 24.3196 46.9438 24.7449C46.6779 24.9726 46.5267 25.3034 46.5267 25.6503C46.5277 26.4867 46.5604 27.9062 46.5797 28.6812C46.5874 29.012 46.3929 29.3153 46.0847 29.4495C45.58 29.6707 44.8538 29.9882 44.6476 30.0761C44.1709 30.2793 43.6932 30.4825 43.2164 30.6857L43.201 30.6923C42.9342 30.8058 42.9352 31.1762 43.201 31.2896C43.4524 31.3964 43.7028 31.5061 43.9542 31.6138C44.0784 31.6667 44.2017 31.7197 44.326 31.7717C44.5321 31.8586 44.6669 32.0571 44.6679 32.2773C44.6679 32.3557 44.6679 32.4257 44.6679 32.4578C44.664 32.6563 44.6573 32.8557 44.6428 33.0532C44.6082 33.539 44.6467 33.8839 44.6775 34.3735C44.7045 34.8045 44.4252 35.9395 42.8889 35.7883C42.3313 35.7335 41.7717 35.6947 41.2121 35.691C40.3116 35.6853 38.7667 35.5823 38.0636 36.3195C37.9259 36.4641 37.8469 36.6824 37.6909 36.8345C37.5695 36.9527 36.8 38.272 37.3114 38.2711C38.3391 38.2663 39.3658 38.2682 40.3925 38.2682C40.4955 38.2682 40.5938 38.3089 40.6679 38.3788C41.6417 39.3097 41.9191 40.3134 42.3746 41.3152C50.2262 41.32 56.6696 44.057 60.8332 51.0752Z" fill="#8AA9C9"/>
</svg>
