<svg width="22" height="22" viewBox="0 0 22 22" fill="none" xmlns="http://www.w3.org/2000/svg">
<path fill-rule="evenodd" clip-rule="evenodd" d="M18.0606 3.10585C17.0859 2.13074 15.928 1.35803 14.6536 0.832209C13.3791 0.30639 12.0132 0.0378476 10.6345 0.0420405C4.84854 0.0420405 0.138457 4.72859 0.136104 10.4901C0.133544 12.3246 0.617134 14.1271 1.53765 15.7141L0.0480957 21.1263L5.61332 19.6735C7.1538 20.508 8.87824 20.9448 10.6303 20.9442H10.6345C16.42 20.9442 21.1296 16.2572 21.1324 10.4962C21.1359 9.1222 20.8661 7.76124 20.3388 6.49249C19.8114 5.22374 19.037 4.07253 18.0606 3.10585ZM10.6345 19.1808H10.6307C9.06887 19.1812 7.53542 18.7632 6.18984 17.9703L5.87122 17.782L2.5688 18.6442L3.45029 15.4397L3.24274 15.1103C2.36943 13.7276 1.90674 12.1254 1.9085 10.4901C1.9085 5.70233 5.82463 1.80691 10.6378 1.80691C12.9467 1.80279 15.1627 2.71595 16.7984 4.34555C18.4341 5.97516 19.3555 8.18774 19.36 10.4967C19.3581 15.2849 15.4439 19.1808 10.6345 19.1808ZM15.4203 12.6771C15.1582 12.5463 13.8673 11.9147 13.6282 11.8276C13.3891 11.7405 13.2126 11.6968 13.038 11.9584C12.8634 12.2201 12.3603 12.8056 12.2073 12.9821C12.0544 13.1586 11.9014 13.1778 11.6393 13.047C11.3771 12.9162 10.5314 12.6409 9.52944 11.7514C8.74961 11.0591 8.22344 10.2044 8.07049 9.94319C7.91753 9.68199 8.05401 9.54033 8.18532 9.41044C8.30345 9.29325 8.44746 9.10547 8.57877 8.95298C8.71007 8.8005 8.75384 8.69131 8.84091 8.51718C8.92798 8.34304 8.88468 8.19056 8.81926 8.06019C8.75384 7.92983 8.22909 6.64453 8.01071 6.12166C7.79752 5.61244 7.5815 5.68162 7.42054 5.67362C7.26759 5.66609 7.0911 5.66421 6.91744 5.66421C6.78468 5.66766 6.65405 5.69845 6.53373 5.75465C6.4134 5.81084 6.30594 5.89124 6.21808 5.99083C5.97759 6.2525 5.29988 6.88503 5.29988 8.16891C5.29988 9.45279 6.24114 10.6953 6.37103 10.8694C6.50093 11.0435 8.22062 13.6805 10.8519 14.8114C11.3405 15.0207 11.8398 15.2041 12.3476 15.3611C12.9759 15.5597 13.5477 15.5319 13.9995 15.4646C14.5036 15.3898 15.5526 14.8331 15.7705 14.2231C15.9884 13.6132 15.9889 13.0908 15.9234 12.9821C15.858 12.8733 15.683 12.8075 15.4203 12.6771Z" fill="white"/>
</svg>
